<svg width="1440" height="304" viewBox="0 0 1440 304" fill="none" xmlns="http://www.w3.org/2000/svg">
<rect width="1440" height="304" fill="#E29F72"/>
<mask id="mask0_0_288" style="mask-type:luminance" maskUnits="userSpaceOnUse" x="0" y="0" width="1440" height="304">
<rect width="1440" height="304" fill="white"/>
</mask>
<g mask="url(#mask0_0_288)">
<rect x="884.402" y="-628" width="871" height="1337" rx="80" transform="rotate(45 884.402 -628)" fill="#D58E5E"/>
<circle cx="1321" cy="153" r="61" fill="#E3E2CD"/>
<mask id="mask1_0_288" style="mask-type:luminance" maskUnits="userSpaceOnUse" x="420" y="34" width="400" height="400">
<circle cx="620" cy="234" r="200" fill="white"/>
</mask>
<g mask="url(#mask1_0_288)">
<path d="M520.018 -173.501L520.725 -174.207L520.019 -174.915L519.311 -174.208L520.018 -173.501ZM520.724 -172.793L521.432 -173.5L520.724 -172.793ZM518.603 -172.087L517.896 -172.795L517.188 -172.088L517.895 -171.381L518.603 -172.087ZM519.309 -171.38L520.017 -172.086L520.017 -172.086L519.309 -171.38ZM1043.28 353.293L1043.98 352.587L1043.28 353.293ZM1043.98 354.001L1043.27 354.708L1043.98 355.415L1044.69 354.709L1043.98 354.001ZM1045.4 352.588L1046.1 353.295L1046.81 352.589L1046.1 351.881L1045.4 352.588ZM1044.69 351.88L1043.98 352.587L1044.69 351.88ZM503.047 -156.53L503.755 -157.237L503.048 -157.944L502.34 -157.238L503.047 -156.53ZM503.754 -155.822L504.461 -156.529L504.461 -156.529L503.754 -155.822ZM501.632 -155.117L500.925 -155.824L500.218 -155.118L500.924 -154.41L501.632 -155.117ZM502.339 -154.409L501.631 -153.703L501.631 -153.703L502.339 -154.409ZM1026.3 370.264L1025.6 370.971L1026.3 370.264ZM1027.01 370.972L1026.3 371.678L1027.01 372.386L1027.72 371.679L1027.01 370.972ZM1028.43 369.558L1029.13 370.266L1029.84 369.559L1029.13 368.852L1028.43 369.558ZM1027.72 368.851L1028.43 368.144L1027.72 368.851ZM486.783 -138.852L486.076 -138.145L486.076 -138.145L486.783 -138.852ZM486.077 -139.559L486.784 -140.266L486.078 -140.974L485.37 -140.267L486.077 -139.559ZM1010.75 385.821L1011.46 385.115L1010.75 385.821ZM1011.46 386.529L1012.16 387.236L1012.87 386.53L1012.16 385.822L1011.46 386.529ZM1010.04 387.942L1009.33 388.649L1010.04 389.356L1010.75 388.65L1010.04 387.942ZM1009.33 387.235L1010.04 386.528L1009.33 387.235ZM485.368 -137.439L484.66 -136.732L484.66 -136.732L485.368 -137.439ZM484.661 -138.146L483.955 -138.854L483.247 -138.147L483.954 -137.44L484.661 -138.146ZM469.106 -122.589L469.814 -123.296L469.107 -124.003L468.399 -123.297L469.106 -122.589ZM469.813 -121.881L470.52 -122.588L470.52 -122.588L469.813 -121.881ZM467.691 -121.176L466.984 -121.883L466.277 -121.177L466.983 -120.469L467.691 -121.176ZM468.397 -120.468L469.105 -121.175L469.105 -121.175L468.397 -120.468ZM992.364 404.205L991.656 404.912L992.364 404.205ZM993.07 404.913L992.363 405.619L993.069 406.327L993.777 405.62L993.07 404.913ZM994.485 403.499L995.192 404.207L995.9 403.5L995.193 402.793L994.485 403.499ZM993.779 402.792L993.071 403.499L993.779 402.792ZM452.842 -104.911L453.55 -105.617L453.55 -105.617L452.842 -104.911ZM452.135 -105.618L452.843 -106.325L452.136 -107.033L451.429 -106.326L452.135 -105.618ZM976.808 419.762L976.101 420.469L976.808 419.762ZM977.515 420.47L978.221 421.178L978.929 420.471L978.222 419.763L977.515 420.47ZM976.1 421.883L975.392 422.59L976.099 423.297L976.806 422.591L976.1 421.883ZM975.393 421.176L974.685 421.882L975.393 421.176ZM451.427 -103.498L452.134 -104.204L452.134 -104.204L451.427 -103.498ZM450.72 -104.205L450.014 -104.913L449.306 -104.206L450.013 -103.498L450.72 -104.205ZM435.165 -88.6478L435.872 -89.3544L435.166 -90.062L434.458 -89.3554L435.165 -88.6478ZM435.871 -87.9402L436.579 -88.6469L436.579 -88.6469L435.871 -87.9402ZM433.75 -87.2345L433.043 -87.9421L432.335 -87.2355L433.042 -86.5279L433.75 -87.2345ZM434.456 -86.527L435.164 -87.2336L435.164 -87.2336L434.456 -86.527ZM958.422 438.146L957.715 438.853L958.422 438.146ZM959.129 438.854L958.421 439.56L959.128 440.268L959.836 439.561L959.129 438.854ZM960.544 437.441L961.251 438.148L961.958 437.442L961.252 436.734L960.544 437.441ZM959.838 436.733L959.13 437.44L959.838 436.733ZM418.901 -70.9697L419.609 -71.6763L419.609 -71.6763L418.901 -70.9697ZM418.194 -71.6772L418.902 -72.3839L418.195 -73.0915L417.488 -72.3848L418.194 -71.6772ZM942.867 453.704L942.159 454.41L942.867 453.704ZM943.574 454.411L944.28 455.119L944.988 454.412L944.281 453.705L943.574 454.411ZM942.159 455.824L941.451 456.531L942.158 457.239L942.865 456.532L942.159 455.824ZM941.452 455.117L940.744 455.823L941.452 455.117ZM417.486 -69.5564L418.193 -70.263L418.193 -70.263L417.486 -69.5564ZM416.779 -70.264L416.072 -70.9716L415.365 -70.2649L416.072 -69.5574L416.779 -70.264ZM401.224 -54.7067L401.931 -55.4133L401.225 -56.1209L400.517 -55.4143L401.224 -54.7067ZM401.93 -53.9991L402.638 -54.7057L402.638 -54.7057L401.93 -53.9991ZM399.809 -53.2934L399.102 -54.001L398.394 -53.2944L399.101 -52.5868L399.809 -53.2934ZM400.515 -52.5858L401.223 -53.2925L401.223 -53.2925L400.515 -52.5858ZM924.481 472.087L923.774 472.794L924.481 472.087ZM925.188 472.795L924.48 473.502L925.187 474.209L925.895 473.503L925.188 472.795ZM926.603 471.382L927.31 472.089L928.017 471.383L927.311 470.675L926.603 471.382ZM925.896 470.674L925.189 471.381L925.896 470.674ZM384.96 -37.0285L385.667 -37.7352L385.667 -37.7352L384.96 -37.0285ZM384.253 -37.7361L384.961 -38.4428L384.254 -39.1503L383.547 -38.4437L384.253 -37.7361ZM908.926 487.645L908.218 488.351L908.926 487.645ZM909.633 488.352L910.339 489.06L911.047 488.353L910.34 487.646L909.633 488.352ZM908.217 489.766L907.51 490.472L908.216 491.18L908.924 490.473L908.217 489.766ZM907.511 489.058L906.803 489.765L907.511 489.058ZM383.545 -35.6153L384.252 -36.3219L384.252 -36.3219L383.545 -35.6153ZM382.838 -36.3229L382.131 -37.0304L381.424 -36.3238L382.13 -35.6162L382.838 -36.3229ZM367.283 -20.7656L367.99 -21.4722L367.284 -22.1798L366.576 -21.4731L367.283 -20.7656ZM367.989 -20.058L368.697 -20.7646L368.697 -20.7646L367.989 -20.058ZM365.867 -19.3523L365.161 -20.0599L364.453 -19.3532L365.16 -18.6457L365.867 -19.3523ZM366.574 -18.6447L367.282 -19.3513L367.282 -19.3513L366.574 -18.6447ZM890.54 506.029L889.833 506.735L890.54 506.029ZM891.247 506.736L890.539 507.443L891.246 508.15L891.953 507.444L891.247 506.736ZM892.662 505.323L893.369 506.03L894.076 505.324L893.37 504.616L892.662 505.323ZM891.955 504.615L891.248 505.322L891.955 504.615ZM351.019 -3.08741L351.726 -3.79404L351.726 -3.79404L351.019 -3.08741ZM350.312 -3.79499L351.02 -4.50163L350.313 -5.2092L349.605 -4.50258L350.312 -3.79499ZM874.985 521.586L874.277 522.292L874.985 521.586ZM875.691 522.293L876.398 523.001L877.106 522.294L876.399 521.587L875.691 522.293ZM874.276 523.707L873.569 524.413L874.275 525.121L874.983 524.414L874.276 523.707ZM873.57 522.999L872.862 523.706L873.57 522.999ZM349.604 -1.67415L350.311 -2.38078L350.311 -2.38078L349.604 -1.67415ZM348.897 -2.38173L348.19 -3.08932L347.483 -2.38269L348.189 -1.6751L348.897 -2.38173ZM333.341 13.1756L334.049 12.4689L333.342 11.7614L332.635 12.468L333.341 13.1756ZM334.048 13.8832L334.756 13.1765L334.756 13.1765L334.048 13.8832ZM331.926 14.5888L331.22 13.8812L330.512 14.5879L331.219 15.2955L331.926 14.5888ZM332.633 15.2964L333.341 14.5898L333.341 14.5898L332.633 15.2964ZM856.599 539.97L855.891 540.676L856.599 539.97ZM857.306 540.677L856.598 541.384L857.305 542.091L858.012 541.385L857.306 540.677ZM858.721 539.264L859.427 539.972L860.135 539.265L859.428 538.557L858.721 539.264ZM858.014 538.556L857.307 539.263L858.014 538.556ZM317.078 30.8537L317.785 30.1471L317.785 30.1471L317.078 30.8537ZM316.371 30.1461L317.079 29.4395L316.372 28.7319L315.664 29.4385L316.371 30.1461ZM841.044 555.527L840.336 556.234L841.044 555.527ZM841.75 556.235L842.457 556.942L843.165 556.235L842.458 555.528L841.75 556.235ZM840.335 557.648L839.628 558.354L840.334 559.062L841.042 558.355L840.335 557.648ZM839.629 556.94L838.921 557.647L839.629 556.94ZM315.662 32.267L316.37 31.5603L316.37 31.5603L315.662 32.267ZM314.956 31.5594L314.249 30.8518L313.542 31.5584L314.248 32.266L314.956 31.5594ZM299.4 47.1167L300.108 46.4101L299.401 45.7025L298.694 46.4091L299.4 47.1167ZM300.107 47.8243L300.815 47.1176L300.815 47.1176L300.107 47.8243ZM297.985 48.53L297.279 47.8224L296.571 48.529L297.278 49.2366L297.985 48.53ZM298.692 49.2375L299.399 48.5309L299.399 48.5309L298.692 49.2375ZM822.658 573.911L821.95 574.617L822.658 573.911ZM823.365 574.618L822.657 575.325L823.364 576.033L824.071 575.326L823.365 574.618ZM824.78 573.205L825.486 573.913L826.194 573.206L825.487 572.498L824.78 573.205ZM824.073 572.497L823.366 573.204L824.073 572.497ZM283.136 64.7948L283.844 64.0882L283.844 64.0882L283.136 64.7948ZM282.43 64.0873L283.137 63.3806L282.431 62.673L281.723 63.3797L282.43 64.0873ZM807.103 589.468L806.395 590.175L807.103 589.468ZM807.809 590.176L808.516 590.883L809.223 590.177L808.517 589.469L807.809 590.176ZM806.394 591.589L805.686 592.296L806.393 593.003L807.101 592.296L806.394 591.589ZM805.687 590.881L804.98 591.588L805.687 590.881ZM281.721 66.2081L282.429 65.5015L282.429 65.5015L281.721 66.2081ZM281.015 65.5005L280.308 64.7929L279.6 65.4996L280.307 66.2071L281.015 65.5005ZM265.459 81.0578L266.167 80.3512L265.46 79.6436L264.753 80.3502L265.459 81.0578ZM266.166 81.7654L266.873 81.0588L266.873 81.0588L266.166 81.7654ZM264.044 82.4711L263.337 81.7635L262.63 82.4701L263.336 83.1777L264.044 82.4711ZM264.751 83.1787L265.458 82.472L265.458 82.472L264.751 83.1787ZM788.717 607.852L788.009 608.559L788.717 607.852ZM789.423 608.559L788.716 609.266L789.423 609.974L790.13 609.267L789.423 608.559ZM790.839 607.146L791.545 607.854L792.253 607.147L791.546 606.44L790.839 607.146ZM790.132 606.439L789.424 607.145L790.132 606.439ZM249.195 98.736L249.903 98.0293L249.903 98.0293L249.195 98.736ZM248.489 98.0284L249.196 97.3217L248.49 96.6142L247.782 97.3208L248.489 98.0284ZM773.161 623.409L772.454 624.116L773.161 623.409ZM773.868 624.117L774.575 624.824L775.282 624.118L774.576 623.41L773.868 624.117ZM772.453 625.53L771.745 626.237L772.452 626.944L773.16 626.238L772.453 625.53ZM771.746 624.822L771.039 625.529L771.746 624.822ZM247.78 100.149L248.488 99.4426L248.488 99.4426L247.78 100.149ZM247.074 99.4416L246.367 98.7341L245.659 99.4407L246.366 100.148L247.074 99.4416ZM231.518 114.999L232.226 114.292L231.519 113.585L230.811 114.291L231.518 114.999ZM232.225 115.707L232.932 115L232.932 115L232.225 115.707ZM230.103 116.412L229.396 115.705L228.689 116.411L229.395 117.119L230.103 116.412ZM230.81 117.12L231.517 116.413L231.517 116.413L230.81 117.12ZM754.776 641.793L754.068 642.5L754.776 641.793ZM755.482 642.501L754.775 643.207L755.481 643.915L756.189 643.208L755.482 642.501ZM756.897 641.087L757.604 641.795L758.312 641.088L757.605 640.381L756.897 641.087ZM756.191 640.38L755.483 641.086L756.191 640.38ZM519.31 -172.794L520.017 -172.086L521.432 -173.5L520.725 -174.207L519.31 -172.794ZM519.309 -171.38L520.724 -172.793L519.311 -174.208L517.896 -172.795L519.309 -171.38ZM520.017 -172.086L519.31 -172.794L517.895 -171.381L518.602 -170.673L520.017 -172.086ZM1043.98 352.587L520.017 -172.086L518.602 -170.673L1042.57 354L1043.98 352.587ZM1044.69 353.294L1043.98 352.587L1042.57 354L1043.27 354.708L1044.69 353.294ZM1044.69 351.88L1043.28 353.293L1044.69 354.709L1046.1 353.295L1044.69 351.88ZM1043.98 352.587L1044.69 353.294L1046.1 351.881L1045.4 351.174L1043.98 352.587ZM520.017 -172.086L1043.98 352.587L1045.4 351.174L521.432 -173.5L520.017 -172.086ZM502.34 -155.823L503.046 -155.116L504.461 -156.529L503.755 -157.237L502.34 -155.823ZM502.339 -154.409L503.754 -155.822L502.34 -157.238L500.925 -155.824L502.339 -154.409ZM503.046 -155.116L502.34 -155.823L500.924 -154.41L501.631 -153.703L503.046 -155.116ZM1027.01 369.557L503.046 -155.116L501.631 -153.703L1025.6 370.971L1027.01 369.557ZM1027.72 370.265L1027.01 369.557L1025.6 370.971L1026.3 371.678L1027.72 370.265ZM1027.72 368.851L1026.3 370.264L1027.72 371.679L1029.13 370.266L1027.72 368.851ZM1027.01 369.557L1027.72 370.265L1029.13 368.852L1028.43 368.144L1027.01 369.557ZM503.046 -155.116L1027.01 369.557L1028.43 368.144L504.461 -156.529L503.046 -155.116ZM487.491 -139.559L486.784 -140.266L485.369 -138.853L486.076 -138.145L487.491 -139.559ZM1011.46 385.115L487.491 -139.559L486.076 -138.145L1010.04 386.528L1011.46 385.115ZM1012.16 385.822L1011.46 385.115L1010.04 386.528L1010.75 387.236L1012.16 385.822ZM1010.75 388.65L1012.16 387.236L1010.75 385.821L1009.33 387.235L1010.75 388.65ZM1008.63 387.941L1009.33 388.649L1010.75 387.236L1010.04 386.528L1008.63 387.941ZM484.66 -136.732L1008.63 387.941L1010.04 386.528L486.076 -138.145L484.66 -136.732ZM483.954 -137.44L484.66 -136.732L486.076 -138.145L485.369 -138.853L483.954 -137.44ZM485.37 -140.267L483.955 -138.854L485.368 -137.439L486.783 -138.852L485.37 -140.267ZM468.398 -121.882L469.105 -121.175L470.52 -122.588L469.814 -123.296L468.398 -121.882ZM468.397 -120.468L469.813 -121.881L468.399 -123.297L466.984 -121.883L468.397 -120.468ZM469.105 -121.175L468.398 -121.882L466.983 -120.469L467.69 -119.761L469.105 -121.175ZM993.071 403.499L469.105 -121.175L467.69 -119.761L991.656 404.912L993.071 403.499ZM993.778 404.206L993.071 403.499L991.656 404.912L992.363 405.619L993.778 404.206ZM993.779 402.792L992.364 404.205L993.777 405.62L995.192 404.207L993.779 402.792ZM993.071 403.499L993.778 404.206L995.193 402.793L994.486 402.085L993.071 403.499ZM469.105 -121.175L993.071 403.499L994.486 402.085L470.52 -122.588L469.105 -121.175ZM453.55 -105.617L452.843 -106.325L451.428 -104.912L452.134 -104.204L453.55 -105.617ZM977.516 419.056L453.55 -105.617L452.134 -104.204L976.101 420.469L977.516 419.056ZM978.222 419.763L977.516 419.056L976.101 420.469L976.807 421.177L978.222 419.763ZM976.806 422.591L978.221 421.178L976.808 419.762L975.393 421.176L976.806 422.591ZM974.685 421.882L975.392 422.59L976.807 421.177L976.101 420.469L974.685 421.882ZM450.719 -102.791L974.685 421.882L976.101 420.469L452.134 -104.204L450.719 -102.791ZM450.013 -103.498L450.719 -102.791L452.134 -104.204L451.428 -104.912L450.013 -103.498ZM451.429 -106.326L450.014 -104.913L451.427 -103.498L452.842 -104.911L451.429 -106.326ZM434.457 -87.9412L435.164 -87.2336L436.579 -88.6469L435.872 -89.3544L434.457 -87.9412ZM434.456 -86.527L435.871 -87.9402L434.458 -89.3554L433.043 -87.9421L434.456 -86.527ZM435.164 -87.2336L434.457 -87.9412L433.042 -86.5279L433.749 -85.8203L435.164 -87.2336ZM959.13 437.44L435.164 -87.2336L433.749 -85.8203L957.715 438.853L959.13 437.44ZM959.837 438.147L959.13 437.44L957.715 438.853L958.421 439.56L959.837 438.147ZM959.838 436.733L958.422 438.146L959.836 439.561L961.251 438.148L959.838 436.733ZM959.13 437.44L959.837 438.147L961.252 436.734L960.545 436.026L959.13 437.44ZM435.164 -87.2336L959.13 437.44L960.545 436.026L436.579 -88.6469L435.164 -87.2336ZM419.609 -71.6763L418.902 -72.3839L417.487 -70.9706L418.193 -70.263L419.609 -71.6763ZM943.575 452.997L419.609 -71.6763L418.193 -70.263L942.159 454.41L943.575 452.997ZM944.281 453.705L943.575 452.997L942.159 454.41L942.866 455.118L944.281 453.705ZM942.865 456.532L944.28 455.119L942.867 453.704L941.452 455.117L942.865 456.532ZM940.744 455.823L941.451 456.531L942.866 455.118L942.159 454.41L940.744 455.823ZM416.778 -68.8498L940.744 455.823L942.159 454.41L418.193 -70.263L416.778 -68.8498ZM416.072 -69.5574L416.778 -68.8498L418.193 -70.263L417.487 -70.9706L416.072 -69.5574ZM417.488 -72.3848L416.072 -70.9716L417.486 -69.5564L418.901 -70.9697L417.488 -72.3848ZM400.516 -54L401.223 -53.2925L402.638 -54.7057L401.931 -55.4133L400.516 -54ZM400.515 -52.5858L401.93 -53.9991L400.517 -55.4143L399.102 -54.001L400.515 -52.5858ZM401.223 -53.2925L400.516 -54.0001L399.101 -52.5868L399.808 -51.8792L401.223 -53.2925ZM925.189 471.381L401.223 -53.2925L399.808 -51.8792L923.774 472.794L925.189 471.381ZM925.896 472.088L925.189 471.381L923.774 472.794L924.48 473.502L925.896 472.088ZM925.896 470.674L924.481 472.087L925.895 473.503L927.31 472.089L925.896 470.674ZM925.189 471.381L925.896 472.088L927.311 470.675L926.604 469.967L925.189 471.381ZM401.223 -53.2925L925.189 471.381L926.604 469.967L402.638 -54.7057L401.223 -53.2925ZM385.667 -37.7352L384.961 -38.4428L383.546 -37.0295L384.252 -36.3219L385.667 -37.7352ZM909.633 486.938L385.667 -37.7352L384.252 -36.3219L908.218 488.351L909.633 486.938ZM910.34 487.646L909.633 486.938L908.218 488.351L908.925 489.059L910.34 487.646ZM908.924 490.473L910.339 489.06L908.926 487.645L907.511 489.058L908.924 490.473ZM906.803 489.765L907.51 490.472L908.925 489.059L908.218 488.351L906.803 489.765ZM382.837 -34.9086L906.803 489.765L908.218 488.351L384.252 -36.3219L382.837 -34.9086ZM382.13 -35.6162L382.837 -34.9086L384.252 -36.3219L383.546 -37.0295L382.13 -35.6162ZM383.547 -38.4437L382.131 -37.0304L383.545 -35.6153L384.96 -37.0285L383.547 -38.4437ZM366.575 -20.0589L367.282 -19.3513L368.697 -20.7646L367.99 -21.4722L366.575 -20.0589ZM366.574 -18.6447L367.989 -20.058L366.576 -21.4731L365.161 -20.0599L366.574 -18.6447ZM367.282 -19.3513L366.575 -20.0589L365.16 -18.6457L365.866 -17.9381L367.282 -19.3513ZM891.248 505.322L367.282 -19.3513L365.866 -17.9381L889.833 506.735L891.248 505.322ZM891.954 506.029L891.248 505.322L889.833 506.735L890.539 507.443L891.954 506.029ZM891.955 504.615L890.54 506.029L891.953 507.444L893.369 506.03L891.955 504.615ZM891.248 505.322L891.954 506.029L893.37 504.616L892.663 503.909L891.248 505.322ZM367.282 -19.3513L891.248 505.322L892.663 503.909L368.697 -20.7646L367.282 -19.3513ZM351.726 -3.79404L351.02 -4.50163L349.604 -3.08836L350.311 -2.38078L351.726 -3.79404ZM875.692 520.879L351.726 -3.79404L350.311 -2.38078L874.277 522.292L875.692 520.879ZM876.399 521.587L875.692 520.879L874.277 522.292L874.984 523L876.399 521.587ZM874.983 524.414L876.398 523.001L874.985 521.586L873.57 522.999L874.983 524.414ZM872.862 523.706L873.569 524.413L874.984 523L874.277 522.292L872.862 523.706ZM348.896 -0.967522L872.862 523.706L874.277 522.292L350.311 -2.38078L348.896 -0.967522ZM348.189 -1.6751L348.896 -0.96752L350.311 -2.38078L349.604 -3.08837L348.189 -1.6751ZM349.605 -4.50258L348.19 -3.08932L349.604 -1.67415L351.019 -3.08741L349.605 -4.50258ZM332.634 13.8822L333.341 14.5898L334.756 13.1765L334.049 12.4689L332.634 13.8822ZM332.633 15.2964L334.048 13.8832L332.635 12.468L331.22 13.8812L332.633 15.2964ZM333.341 14.5898L332.634 13.8822L331.219 15.2955L331.925 16.003L333.341 14.5898ZM857.307 539.263L333.341 14.5898L331.925 16.003L855.891 540.676L857.307 539.263ZM858.013 539.971L857.307 539.263L855.891 540.676L856.598 541.384L858.013 539.971ZM858.014 538.556L856.599 539.97L858.012 541.385L859.427 539.972L858.014 538.556ZM857.307 539.263L858.013 539.971L859.428 538.557L858.722 537.85L857.307 539.263ZM333.341 14.5898L857.307 539.263L858.722 537.85L334.756 13.1765L333.341 14.5898ZM317.785 30.1471L317.079 29.4395L315.663 30.8528L316.37 31.5603L317.785 30.1471ZM841.751 554.82L317.785 30.1471L316.37 31.5603L840.336 556.234L841.751 554.82ZM842.458 555.528L841.751 554.82L840.336 556.234L841.043 556.941L842.458 555.528ZM841.042 558.355L842.457 556.942L841.044 555.527L839.629 556.94L841.042 558.355ZM838.921 557.647L839.628 558.354L841.043 556.941L840.336 556.234L838.921 557.647ZM314.955 32.9736L838.921 557.647L840.336 556.234L316.37 31.5603L314.955 32.9736ZM314.248 32.266L314.955 32.9736L316.37 31.5603L315.663 30.8528L314.248 32.266ZM315.664 29.4385L314.249 30.8518L315.662 32.267L317.078 30.8537L315.664 29.4385ZM298.693 47.8233L299.399 48.5309L300.815 47.1176L300.108 46.4101L298.693 47.8233ZM298.692 49.2375L300.107 47.8243L298.694 46.4091L297.279 47.8224L298.692 49.2375ZM299.399 48.5309L298.693 47.8233L297.278 49.2366L297.984 49.9442L299.399 48.5309ZM823.366 573.204L299.399 48.5309L297.984 49.9442L821.95 574.617L823.366 573.204ZM824.072 573.912L823.366 573.204L821.95 574.617L822.657 575.325L824.072 573.912ZM824.073 572.497L822.658 573.911L824.071 575.326L825.486 573.913L824.073 572.497ZM823.366 573.204L824.072 573.912L825.487 572.498L824.781 571.791L823.366 573.204ZM299.399 48.5309L823.366 573.204L824.781 571.791L300.815 47.1176L299.399 48.5309ZM283.844 64.0882L283.137 63.3806L281.722 64.7939L282.429 65.5015L283.844 64.0882ZM807.81 588.761L283.844 64.0882L282.429 65.5015L806.395 590.175L807.81 588.761ZM808.517 589.469L807.81 588.761L806.395 590.175L807.102 590.882L808.517 589.469ZM807.101 592.296L808.516 590.883L807.103 589.468L805.687 590.881L807.101 592.296ZM804.98 591.588L805.686 592.296L807.102 590.882L806.395 590.175L804.98 591.588ZM281.014 66.9147L804.98 591.588L806.395 590.175L282.429 65.5015L281.014 66.9147ZM280.307 66.2071L281.014 66.9147L282.429 65.5015L281.722 64.7939L280.307 66.2071ZM281.723 63.3797L280.308 64.7929L281.721 66.2081L283.136 64.7948L281.723 63.3797ZM264.752 81.7645L265.458 82.472L266.873 81.0588L266.167 80.3512L264.752 81.7645ZM264.751 83.1787L266.166 81.7654L264.753 80.3502L263.337 81.7635L264.751 83.1787ZM265.458 82.472L264.752 81.7644L263.336 83.1777L264.043 83.8853L265.458 82.472ZM789.424 607.145L265.458 82.472L264.043 83.8853L788.009 608.559L789.424 607.145ZM790.131 607.853L789.424 607.145L788.009 608.559L788.716 609.266L790.131 607.853ZM790.132 606.439L788.717 607.852L790.13 609.267L791.545 607.854L790.132 606.439ZM789.424 607.145L790.131 607.853L791.546 606.44L790.84 605.732L789.424 607.145ZM265.458 82.472L789.424 607.145L790.84 605.732L266.873 81.0588L265.458 82.472ZM249.903 98.0293L249.196 97.3217L247.781 98.735L248.488 99.4426L249.903 98.0293ZM773.869 622.703L249.903 98.0293L248.488 99.4426L772.454 624.116L773.869 622.703ZM774.576 623.41L773.869 622.703L772.454 624.116L773.16 624.823L774.576 623.41ZM773.16 626.238L774.575 624.824L773.161 623.409L771.746 624.822L773.16 626.238ZM771.039 625.529L771.745 626.237L773.16 624.823L772.454 624.116L771.039 625.529ZM247.073 100.856L771.039 625.529L772.454 624.116L248.488 99.4426L247.073 100.856ZM246.366 100.148L247.073 100.856L248.488 99.4426L247.781 98.735L246.366 100.148ZM247.782 97.3208L246.367 98.7341L247.78 100.149L249.195 98.736L247.782 97.3208ZM230.811 115.706L231.517 116.413L232.932 115L232.226 114.292L230.811 115.706ZM230.81 117.12L232.225 115.707L230.811 114.291L229.396 115.705L230.81 117.12ZM231.517 116.413L230.811 115.706L229.395 117.119L230.102 117.826L231.517 116.413ZM755.483 641.086L231.517 116.413L230.102 117.826L754.068 642.5L755.483 641.086ZM756.19 641.794L755.483 641.086L754.068 642.5L754.775 643.207L756.19 641.794ZM756.191 640.38L754.776 641.793L756.189 643.208L757.604 641.795L756.191 640.38ZM755.483 641.086L756.19 641.794L757.605 640.381L756.898 639.673L755.483 641.086ZM231.517 116.413L755.483 641.086L756.898 639.673L232.932 115L231.517 116.413Z" fill="black"/>
</g>
<circle cx="906" cy="351" r="114" fill="#E29F72"/>
</g>
</svg>
